<svg width="151" height="77" viewBox="0 0 151 77" fill="none" xmlns="http://www.w3.org/2000/svg">
<path d="M5.92 37.848C5.856 38.168 5.664 38.4453 5.344 38.68C5.04533 38.8933 4.61867 39 4.064 39C3.59467 39 3.22133 38.872 2.944 38.616C2.688 38.36 2.54933 38.0933 2.528 37.816C2.656 36.92 2.72 35.576 2.72 33.784C2.72 32.7173 2.656 31.0747 2.528 28.856C2.37867 26.7653 2.304 24.9093 2.304 23.288C2.304 22.4133 2.34667 21.5173 2.432 20.6C2.432 20.3013 2.60267 19.9813 2.944 19.64C3.30667 19.2987 3.79733 19.0853 4.416 19C6.44267 18.7867 8.928 18.68 11.872 18.68H12.896C13.664 18.68 14.4107 18.8187 15.136 19.096C15.8827 19.3733 16.256 19.8533 16.256 20.536C16.256 20.984 16.1493 21.336 15.936 21.592C15.7227 21.848 15.328 21.976 14.752 21.976C14.4747 21.976 14.1547 21.9547 13.792 21.912C13.4293 21.8693 13.1733 21.8373 13.024 21.816C12.2133 21.688 11.584 21.624 11.136 21.624C8.66133 21.624 6.79467 21.7947 5.536 22.136C5.536 22.84 5.55733 23.9813 5.6 25.56L5.632 27.608C6.74133 27.608 7.73333 27.5653 8.608 27.48C9.48267 27.3733 9.984 27.3093 10.112 27.288C11.2213 27.16 11.9573 27.096 12.32 27.096C12.832 27.096 13.2587 27.2133 13.6 27.448C13.9627 27.6613 14.144 28.0027 14.144 28.472C14.144 29.5387 13.3973 30.072 11.904 30.072C11.5413 30.072 11.2213 30.0827 10.944 30.104C10.6667 30.1253 10.432 30.1467 10.24 30.168C9.472 30.2533 8.864 30.296 8.416 30.296C7.43467 30.296 6.60267 30.328 5.92 30.392C5.92 31.1813 5.952 32.0133 6.016 32.888C6.016 33.1653 6.02667 33.592 6.048 34.168C6.09067 34.744 6.112 35.2667 6.112 35.736C6.112 36.1413 6.10133 36.5147 6.08 36.856C6.05867 37.1973 6.00533 37.528 5.92 37.848ZM32.271 38.52C31.9937 38.1573 31.759 37.7627 31.567 37.336C31.375 36.888 31.1723 36.3547 30.959 35.736C30.9163 35.6293 30.7883 35.3093 30.575 34.776C30.383 34.2427 30.159 33.784 29.903 33.4C28.559 33.592 27.4603 33.688 26.607 33.688C26.1377 33.688 25.615 33.6773 25.039 33.656C24.4843 33.6133 24.0683 33.592 23.791 33.592C22.7243 33.5067 21.871 33.464 21.231 33.464C20.975 33.8053 20.751 34.168 20.559 34.552C20.3883 34.936 20.1643 35.512 19.887 36.28C19.503 37.3893 19.1723 38.1787 18.895 38.648C18.703 38.968 18.3297 39.128 17.775 39.128C17.3057 39.128 16.8683 39.032 16.463 38.84C16.079 38.6267 15.887 38.3387 15.887 37.976C16.0577 37.1653 16.3243 36.312 16.687 35.416C17.071 34.4987 17.615 33.2827 18.319 31.768L19.599 28.632C20.303 26.84 20.943 25.304 21.519 24.024C22.1163 22.744 22.895 21.2293 23.855 19.48C23.983 19.224 24.1963 19.0107 24.495 18.84C24.7937 18.648 25.1243 18.552 25.487 18.552C25.8923 18.552 26.1803 18.584 26.351 18.648C26.543 18.6907 26.6923 18.776 26.799 18.904C26.9057 19.0107 27.0657 19.2453 27.279 19.608C28.0043 20.7387 28.623 21.9013 29.135 23.096C29.6683 24.2907 30.3403 25.944 31.151 28.056L31.823 29.752C32.4203 31.288 32.9323 32.5787 33.359 33.624C33.807 34.648 34.2977 35.5867 34.831 36.44C35.1723 36.9947 35.343 37.3787 35.343 37.592C35.343 38.104 35.183 38.4987 34.863 38.776C34.5643 39.032 34.1697 39.16 33.679 39.16C33.0603 39.16 32.591 38.9467 32.271 38.52ZM28.975 30.776C28.6337 30.0507 28.143 28.792 27.503 27C26.8417 25.08 26.1803 23.5547 25.519 22.424C25.1137 23.448 24.5163 24.7707 23.727 26.392C23.1937 27.3947 22.5857 28.8453 21.903 30.744C23.2683 30.9147 24.7403 31 26.319 31C27.4497 31 28.335 30.9253 28.975 30.776ZM52.5158 33.496C52.5158 34.4987 52.3024 35.3093 51.8758 35.928C51.4491 36.5467 50.7131 37.1547 49.6678 37.752C48.9638 38.1787 48.1531 38.5093 47.2358 38.744C46.3184 38.9573 45.3904 39.064 44.4518 39.064C43.8758 39.064 43.2038 38.9573 42.4358 38.744C41.6891 38.5093 41.0811 38.2853 40.6118 38.072L40.0677 37.592C39.1078 36.8027 38.4358 36.1733 38.0518 35.704C37.6891 35.2133 37.5078 34.616 37.5078 33.912C37.5078 33.3573 37.6358 32.9413 37.8918 32.664C38.1478 32.3867 38.5638 32.248 39.1398 32.248C39.4384 32.248 39.7158 32.344 39.9718 32.536C40.2278 32.728 40.4518 32.9947 40.6438 33.336C41.1771 34.2747 41.8064 34.968 42.5318 35.416C43.2784 35.8427 44.1531 36.056 45.1558 36.056C46.0944 36.056 47.0438 35.768 48.0038 35.192C48.7931 34.7013 49.1878 34.2213 49.1878 33.752C49.1878 32.92 48.8144 32.2267 48.0678 31.672C47.3424 31.1173 46.2971 30.616 44.9318 30.168C44.0998 29.8693 42.8518 29.3147 41.1878 28.504C40.0571 27.9493 39.2144 27.2667 38.6598 26.456C38.1051 25.6453 37.8278 24.792 37.8278 23.896C37.8278 23.0853 38.1051 22.296 38.6598 21.528C39.2358 20.7387 39.9291 20.152 40.7398 19.768C41.1664 19.5547 41.8491 19.3307 42.7878 19.096C43.7264 18.84 44.4304 18.712 44.8998 18.712C45.7744 18.712 46.5318 18.8187 47.1718 19.032C47.8118 19.224 48.4411 19.5013 49.0598 19.864C49.9984 20.3973 50.6918 20.8773 51.1398 21.304C51.5878 21.7307 51.8118 22.264 51.8118 22.904C51.8118 23.288 51.6624 23.6293 51.3638 23.928C51.0864 24.2267 50.5958 24.376 49.8918 24.376C49.7211 24.376 49.5504 24.3013 49.3798 24.152C49.2091 24.0027 48.9958 23.7787 48.7398 23.48C48.3984 23.032 48.0678 22.7333 47.7478 22.584C47.6624 22.5627 47.3104 22.424 46.6918 22.168C46.0944 21.912 45.3478 21.784 44.4518 21.784C43.5984 21.784 42.8411 21.9867 42.1798 22.392C41.5184 22.776 41.1878 23.3413 41.1878 24.088C41.1878 24.8347 41.8598 25.4427 43.2038 25.912C44.6331 26.4667 45.8171 26.9467 46.7558 27.352C47.7158 27.7573 48.6438 28.2373 49.5398 28.792C50.5638 29.4107 51.3104 30.0613 51.7798 30.744C52.2704 31.4267 52.5158 32.344 52.5158 33.496ZM70.2285 27.544C70.2072 27.2027 70.1965 26.6907 70.1965 26.008V24.792C70.1965 23.9813 70.1752 23.3733 70.1325 22.968C70.0898 22.6267 70.0685 21.7413 70.0685 20.312C70.0685 19.8 70.2178 19.4053 70.5165 19.128C70.8365 18.8293 71.2632 18.68 71.7965 18.68C72.4792 18.68 72.9378 18.8293 73.1725 19.128C73.4072 19.4267 73.5245 19.9173 73.5245 20.6V21.816L73.4925 25.336C73.4712 26.0187 73.4605 27.0427 73.4605 28.408L73.4925 31.032C73.5138 31.4373 73.5245 32.0027 73.5245 32.728C73.5245 33.304 73.5458 34.1253 73.5885 35.192C73.6312 36.1733 73.6525 36.9093 73.6525 37.4C73.6525 37.8053 73.5352 38.1787 73.3005 38.52C73.0872 38.8613 72.7885 39.032 72.4045 39.032C70.9112 39.032 70.1645 38.5307 70.1645 37.528C70.1645 36.9733 70.1858 36.3547 70.2285 35.672C70.2712 35.1813 70.2925 34.4347 70.2925 33.432C70.2925 32.728 70.2712 31.7147 70.2285 30.392C69.2258 30.4773 67.4978 30.52 65.0445 30.52C63.5085 30.52 62.3138 30.52 61.4605 30.52C60.6072 30.4987 59.9885 30.4453 59.6045 30.36L59.5725 34.04C59.5725 34.2747 59.6258 34.904 59.7325 35.928C59.8392 36.6107 59.8925 37.208 59.8925 37.72C59.8925 38.04 59.7005 38.3493 59.3165 38.648C58.9538 38.9253 58.6125 39.064 58.2925 39.064C57.5245 39.064 57.0018 38.8827 56.7245 38.52C56.4472 38.136 56.3085 37.56 56.3085 36.792L56.2765 34.264C56.2552 33.9653 56.2445 33.5493 56.2445 33.016C56.2445 32.2267 56.2232 31.1493 56.1805 29.784C56.1378 28.5467 56.1165 27.6507 56.1165 27.096C56.1165 26.264 56.1378 25.1013 56.1805 23.608C56.2232 22.2 56.2445 21.1547 56.2445 20.472C56.2445 19.7893 56.4152 19.3307 56.7565 19.096C57.0978 18.8613 57.4818 18.744 57.9085 18.744C59.1032 18.744 59.7005 19.1387 59.7005 19.928C59.7005 21.336 59.6685 22.68 59.6045 23.96C59.5618 25.5813 59.5405 26.7653 59.5405 27.512C60.1592 27.6613 60.8098 27.7573 61.4925 27.8C62.1752 27.8427 63.1352 27.864 64.3725 27.864C66.8898 27.864 68.8418 27.7573 70.2285 27.544ZM95.1883 39.032C93.7803 39.032 92.4896 38.8613 91.3163 38.52C90.1429 38.1573 89.1829 37.6347 88.4363 36.952C87.0709 35.736 86.1109 34.4133 85.5563 32.984C85.0229 31.5333 84.7563 29.688 84.7563 27.448C84.7563 26.9787 84.8203 26.5413 84.9483 26.136C85.0976 25.7093 85.2896 25.24 85.5243 24.728C85.5883 24.5787 85.6843 24.344 85.8123 24.024C85.9616 23.6827 86.0576 23.3733 86.1003 23.096C86.5056 22.3493 87.1883 21.6347 88.1483 20.952C89.1296 20.2693 90.1856 19.7253 91.3163 19.32C92.4469 18.8933 93.4389 18.68 94.2923 18.68C98.4096 18.68 101.354 20.088 103.124 22.904C104.127 24.5467 104.628 26.2 104.628 27.864C104.628 30.0187 104.234 31.9067 103.444 33.528C102.676 35.1493 101.61 36.408 100.244 37.304C99.3909 37.816 98.5163 38.232 97.6203 38.552C96.7243 38.872 95.9136 39.032 95.1883 39.032ZM88.0843 29.816C88.0629 30.9893 88.3083 31.96 88.8203 32.728C89.3536 33.4747 90.1856 34.296 91.3163 35.192C92.1696 35.512 92.7669 35.7253 93.1083 35.832C93.4496 35.9387 93.8229 35.992 94.2283 35.992C95.6149 35.992 96.8416 35.704 97.9083 35.128C98.9749 34.552 99.7963 33.7627 100.372 32.76C100.97 31.7573 101.268 30.6373 101.268 29.4C101.268 27.7787 101.087 26.4987 100.724 25.56C100.362 24.6213 99.7109 23.7787 98.7723 23.032C98.2816 22.6267 97.6523 22.328 96.8843 22.136C96.1376 21.944 95.3376 21.848 94.4843 21.848C92.4363 21.848 90.8469 22.5733 89.7163 24.024C88.6069 25.4533 88.0629 27.384 88.0843 29.816ZM121.93 21.016C121.93 20.3973 122.069 19.864 122.346 19.416C122.645 18.9467 123.082 18.712 123.658 18.712C124.149 18.712 124.586 18.808 124.97 19C125.354 19.192 125.546 19.512 125.546 19.96C125.546 20.8347 125.503 22.0613 125.418 23.64C125.333 25.176 125.29 26.3173 125.29 27.064C125.29 28.2373 125.333 29.8053 125.418 31.768C125.503 33.6453 125.546 35.0213 125.546 35.896C125.546 36.6 125.535 37.1227 125.514 37.464C125.514 37.8053 125.322 38.1467 124.938 38.488C124.575 38.808 124.01 38.968 123.242 38.968C122.837 38.968 122.485 38.904 122.186 38.776C121.909 38.6267 121.717 38.4667 121.61 38.296C120.607 37.08 119.146 35.0107 117.226 32.088C115.071 28.824 113.311 26.328 111.946 24.6C112.117 26.136 112.202 28.0133 112.202 30.232C112.202 31.2133 112.181 32.4933 112.138 34.072C112.117 35.6293 112.074 36.6533 112.01 37.144C111.925 37.7627 111.733 38.2427 111.434 38.584C111.157 38.904 110.709 39.064 110.09 39.064C109.621 39.064 109.269 38.936 109.034 38.68C108.821 38.4027 108.693 37.9333 108.65 37.272C108.629 36.3973 108.682 35.0853 108.81 33.336C108.831 33.0587 108.863 32.5787 108.906 31.896C108.949 31.2133 108.97 30.6053 108.97 30.072C108.97 28.6 108.895 26.9147 108.746 25.016C108.618 22.9253 108.554 21.3787 108.554 20.376C108.554 19.864 108.735 19.4693 109.098 19.192C109.482 18.9147 109.919 18.776 110.41 18.776C110.837 18.776 111.285 18.8827 111.754 19.096C113.589 21.4 116.074 24.8347 119.21 29.4L122.218 34.008C122.239 33.6667 122.25 33.1867 122.25 32.568C122.25 31.48 122.229 30.3067 122.186 29.048C122.143 27.7893 122.111 26.936 122.09 26.488C121.983 24.4187 121.93 22.5947 121.93 21.016Z" fill="black"/>
<path d="M107.182 46.988C107.173 46.8387 107.168 46.6147 107.168 46.316V45.784C107.168 45.4293 107.159 45.1633 107.14 44.986C107.121 44.8367 107.112 44.4493 107.112 43.824C107.112 43.6 107.177 43.4273 107.308 43.306C107.448 43.1753 107.635 43.11 107.868 43.11C108.167 43.11 108.367 43.1753 108.47 43.306C108.573 43.4367 108.624 43.6513 108.624 43.95V44.482L108.61 46.022C108.601 46.3207 108.596 46.7687 108.596 47.366L108.61 48.514C108.619 48.6913 108.624 48.9387 108.624 49.256C108.624 49.508 108.633 49.8673 108.652 50.334C108.671 50.7633 108.68 51.0853 108.68 51.3C108.68 51.4773 108.629 51.6407 108.526 51.79C108.433 51.9393 108.302 52.014 108.134 52.014C107.481 52.014 107.154 51.7947 107.154 51.356C107.154 51.1133 107.163 50.8427 107.182 50.544C107.201 50.3293 107.21 50.0027 107.21 49.564C107.21 49.256 107.201 48.8127 107.182 48.234C106.743 48.2713 105.987 48.29 104.914 48.29C104.242 48.29 103.719 48.29 103.346 48.29C102.973 48.2807 102.702 48.2573 102.534 48.22L102.52 49.83C102.52 49.9327 102.543 50.208 102.59 50.656C102.637 50.9547 102.66 51.216 102.66 51.44C102.66 51.58 102.576 51.7153 102.408 51.846C102.249 51.9673 102.1 52.028 101.96 52.028C101.624 52.028 101.395 51.9487 101.274 51.79C101.153 51.622 101.092 51.37 101.092 51.034L101.078 49.928C101.069 49.7973 101.064 49.6153 101.064 49.382C101.064 49.0367 101.055 48.5653 101.036 47.968C101.017 47.4267 101.008 47.0347 101.008 46.792C101.008 46.428 101.017 45.9193 101.036 45.266C101.055 44.65 101.064 44.1927 101.064 43.894C101.064 43.5953 101.139 43.3947 101.288 43.292C101.437 43.1893 101.605 43.138 101.792 43.138C102.315 43.138 102.576 43.3107 102.576 43.656C102.576 44.272 102.562 44.86 102.534 45.42C102.515 46.1293 102.506 46.6473 102.506 46.974C102.777 47.0393 103.061 47.0813 103.36 47.1C103.659 47.1187 104.079 47.128 104.62 47.128C105.721 47.128 106.575 47.0813 107.182 46.988ZM114.551 43.096C115.177 43.096 115.746 43.1753 116.259 43.334C116.773 43.4833 117.193 43.7073 117.519 44.006C118.107 44.538 118.518 45.1213 118.751 45.756C118.994 46.3813 119.115 47.184 119.115 48.164C119.115 48.3693 119.087 48.556 119.031 48.724C118.985 48.892 118.905 49.1067 118.793 49.368C118.653 49.6573 118.569 49.886 118.541 50.054C118.355 50.3807 118.047 50.6933 117.617 50.992C117.197 51.2907 116.74 51.5333 116.245 51.72C115.751 51.9067 115.317 52 114.943 52C113.142 52 111.859 51.384 111.093 50.152C110.879 49.8067 110.711 49.4473 110.589 49.074C110.477 48.7007 110.421 48.3367 110.421 47.982C110.421 47.03 110.589 46.204 110.925 45.504C111.271 44.7947 111.747 44.244 112.353 43.852C112.717 43.6373 113.095 43.46 113.487 43.32C113.889 43.1707 114.243 43.096 114.551 43.096ZM111.877 48.024C111.877 48.528 111.989 48.9433 112.213 49.27C112.447 49.5967 112.801 49.9513 113.277 50.334C113.669 50.4833 113.935 50.5813 114.075 50.628C114.215 50.6653 114.374 50.684 114.551 50.684C115.494 50.684 116.245 50.4273 116.805 49.914C117.365 49.4007 117.645 48.696 117.645 47.8C117.645 47.0907 117.566 46.5307 117.407 46.12C117.249 45.7093 116.964 45.3407 116.553 45.014C116.339 44.8367 116.063 44.706 115.727 44.622C115.401 44.538 115.046 44.496 114.663 44.496C114.085 44.496 113.585 44.6687 113.165 45.014C112.745 45.35 112.423 45.7887 112.199 46.33C111.985 46.8713 111.877 47.436 111.877 48.024ZM122.316 43.88C122.316 44.1507 122.307 44.5753 122.288 45.154L122.274 46.246C122.274 47.1327 122.339 47.8747 122.47 48.472C122.554 48.864 122.643 49.1627 122.736 49.368C122.839 49.564 122.993 49.788 123.198 50.04C123.357 50.2267 123.562 50.376 123.814 50.488C124.075 50.5907 124.332 50.642 124.584 50.642C125.023 50.642 125.387 50.5767 125.676 50.446C125.975 50.3153 126.199 50.0913 126.348 49.774C126.628 49.1953 126.768 48.4813 126.768 47.632C126.768 47.1 126.735 46.4513 126.67 45.686C126.614 44.846 126.586 44.23 126.586 43.838C126.586 43.6233 126.689 43.4507 126.894 43.32C127.099 43.1893 127.286 43.124 127.454 43.124C127.743 43.124 127.939 43.2033 128.042 43.362C128.154 43.5207 128.21 43.7073 128.21 43.922C128.21 44.1927 128.196 44.426 128.168 44.622C128.149 44.8647 128.14 45.0373 128.14 45.14C128.14 45.4947 128.159 46.0547 128.196 46.82C128.205 47.016 128.215 47.2447 128.224 47.506C128.233 47.7673 128.238 48.0473 128.238 48.346C128.238 48.9807 128.089 49.5827 127.79 50.152C127.491 50.712 127.071 51.1647 126.53 51.51C125.989 51.8553 125.373 52.028 124.682 52.028C123.609 52.028 122.783 51.7433 122.204 51.174C121.625 50.5953 121.233 49.7927 121.028 48.766C120.907 48.1593 120.827 47.4687 120.79 46.694C120.762 45.9193 120.748 44.9393 120.748 43.754C120.748 43.6047 120.818 43.4647 120.958 43.334C121.107 43.2033 121.266 43.138 121.434 43.138C122.022 43.138 122.316 43.3853 122.316 43.88ZM136.415 49.592C136.415 50.0307 136.322 50.3853 136.135 50.656C135.948 50.9267 135.626 51.1927 135.169 51.454C134.861 51.6407 134.506 51.7853 134.105 51.888C133.704 51.9813 133.298 52.028 132.887 52.028C132.635 52.028 132.341 51.9813 132.005 51.888C131.678 51.7853 131.412 51.6873 131.207 51.594L130.969 51.384C130.549 51.0387 130.255 50.7633 130.087 50.558C129.928 50.3433 129.849 50.082 129.849 49.774C129.849 49.5313 129.905 49.3493 130.017 49.228C130.129 49.1067 130.311 49.046 130.563 49.046C130.694 49.046 130.815 49.088 130.927 49.172C131.039 49.256 131.137 49.3727 131.221 49.522C131.454 49.9327 131.73 50.236 132.047 50.432C132.374 50.6187 132.756 50.712 133.195 50.712C133.606 50.712 134.021 50.586 134.441 50.334C134.786 50.1193 134.959 49.9093 134.959 49.704C134.959 49.34 134.796 49.0367 134.469 48.794C134.152 48.5513 133.694 48.332 133.097 48.136C132.733 48.0053 132.187 47.7627 131.459 47.408C130.964 47.1653 130.596 46.8667 130.353 46.512C130.11 46.1573 129.989 45.784 129.989 45.392C129.989 45.0373 130.11 44.692 130.353 44.356C130.605 44.0107 130.908 43.754 131.263 43.586C131.45 43.4927 131.748 43.3947 132.159 43.292C132.57 43.18 132.878 43.124 133.083 43.124C133.466 43.124 133.797 43.1707 134.077 43.264C134.357 43.348 134.632 43.4693 134.903 43.628C135.314 43.8613 135.617 44.0713 135.813 44.258C136.009 44.4447 136.107 44.678 136.107 44.958C136.107 45.126 136.042 45.2753 135.911 45.406C135.79 45.5367 135.575 45.602 135.267 45.602C135.192 45.602 135.118 45.5693 135.043 45.504C134.968 45.4387 134.875 45.3407 134.763 45.21C134.614 45.014 134.469 44.8833 134.329 44.818C134.292 44.8087 134.138 44.748 133.867 44.636C133.606 44.524 133.279 44.468 132.887 44.468C132.514 44.468 132.182 44.5567 131.893 44.734C131.604 44.902 131.459 45.1493 131.459 45.476C131.459 45.8027 131.753 46.0687 132.341 46.274C132.966 46.5167 133.484 46.7267 133.895 46.904C134.315 47.0813 134.721 47.2913 135.113 47.534C135.561 47.8047 135.888 48.0893 136.093 48.388C136.308 48.6867 136.415 49.088 136.415 49.592ZM143.772 50.222C143.95 50.222 144.08 50.292 144.164 50.432C144.258 50.5627 144.304 50.7073 144.304 50.866C144.304 51.062 144.272 51.202 144.206 51.286C144.15 51.3607 144.034 51.44 143.856 51.524C143.483 51.7013 143.063 51.8273 142.596 51.902C142.139 51.9767 141.565 52.014 140.874 52.014C140.044 52.014 139.404 51.874 138.956 51.594C138.518 51.3047 138.228 50.9453 138.088 50.516C137.948 50.0867 137.878 49.5873 137.878 49.018V48.136C137.878 47.5293 137.892 46.946 137.92 46.386C137.958 45.826 138.028 45.1727 138.13 44.426C138.196 43.978 138.373 43.656 138.662 43.46C138.952 43.2547 139.269 43.152 139.614 43.152C139.988 43.152 140.501 43.1427 141.154 43.124L142.372 43.11C142.867 43.11 143.231 43.124 143.464 43.152C143.744 43.208 143.95 43.2733 144.08 43.348C144.22 43.4133 144.29 43.53 144.29 43.698C144.29 43.8847 144.225 44.0667 144.094 44.244C143.973 44.4213 143.786 44.51 143.534 44.51C143.245 44.51 142.83 44.4913 142.288 44.454C141.747 44.4167 141.341 44.398 141.07 44.398C140.734 44.398 140.464 44.412 140.258 44.44C139.997 44.4587 139.81 44.4913 139.698 44.538C139.586 44.5847 139.521 44.664 139.502 44.776C139.372 45.7373 139.306 46.4467 139.306 46.904C139.512 46.932 139.731 46.946 139.964 46.946C140.263 46.946 140.762 46.9133 141.462 46.848C141.976 46.8013 142.4 46.778 142.736 46.778C142.951 46.778 143.11 46.8153 143.212 46.89C143.315 46.9647 143.366 47.0673 143.366 47.198C143.366 47.4033 143.315 47.562 143.212 47.674C143.11 47.786 142.923 47.87 142.652 47.926C142.326 47.9913 141.901 48.0427 141.378 48.08C140.865 48.1173 140.375 48.136 139.908 48.136C139.731 48.136 139.512 48.1267 139.25 48.108C139.25 48.724 139.278 49.2093 139.334 49.564C139.4 49.9187 139.53 50.194 139.726 50.39C139.932 50.586 140.24 50.684 140.65 50.684C141.574 50.684 142.312 50.6 142.862 50.432C143.254 50.292 143.558 50.222 143.772 50.222Z" fill="black"/>
<rect x="78" width="4" height="77" fill="black"/>
<rect y="55" width="149" height="3" fill="black"/>
</svg>
